<svg xmlns="http://www.w3.org/2000/svg" viewBox="0 0 558.29 446.27">
  <g id="mainTrunk">
    <path d="M231.72,167.78c.05,0,.47.47.87.8s.88.71,1.36,1.07c1,.72,2,1.44,3,2.15,2.06,1.42,4.17,2.83,6.28,4.24,4.22,2.81,8.47,5.65,12.68,8.55a270.9,270.9,0,0,1,24.61,18.75,105.92,105.92,0,0,1,11.21,11.21l.65.78.72.92c.47.62.88,1.21,1.27,1.81.77,1.18,1.47,2.35,2.12,3.52,1.32,2.34,2.52,4.68,3.66,7.06s2.2,4.78,3.19,7.29c.5,1.26,1,2.52,1.42,3.93l1.12,3.87A126.18,126.18,0,0,1,309,259.36a259.28,259.28,0,0,1,1.92,31.16c0,5.13-.41,10.21-.58,15.28-.12,2.53-.14,5.06-.2,7.58,0,1.27,0,2.48,0,3.7s0,2.46,0,3.67,0,2.44.13,3.64l.29,3.6.46,3.57.56,3.51a95.94,95.94,0,0,0,3.15,13.76c.32,1.14.77,2.23,1.17,3.34s.87,2.2,1.33,3.3.95,2.19,1.46,3.28,1,2.16,1.6,3.23c2.25,4.29,4.79,8.5,7.51,12.67l0,0a4.06,4.06,0,0,1-6.44,4.92,112.92,112.92,0,0,1-9.72-12.49c-.74-1.11-1.48-2.23-2.16-3.4s-1.4-2.3-2-3.51-1.28-2.38-1.83-3.63-1.18-2.46-1.67-3.74a73.4,73.4,0,0,1-4.67-15.68,132.77,132.77,0,0,1-1.39-16c-.07-1.33-.08-2.65-.1-4s0-2.65,0-3.91c0-2.57,0-5.13,0-7.68,0-5.1-.17-10.18,0-15.22.37-10.07.69-20-.07-29.79a117.37,117.37,0,0,0-1.93-14.44L295,242.6c-.25-1-.6-2.18-1-3.32-.73-2.27-1.59-4.58-2.49-6.86s-1.89-4.53-2.93-6.69c-.52-1.09-1.06-2.14-1.62-3.13-.27-.48-.56-1-.83-1.38l-.41-.6-.56-.7a102.35,102.35,0,0,0-10-10.65,264.14,264.14,0,0,0-23.32-18.94c-4.07-3-8.19-5.94-12.33-8.91-2.07-1.49-4.14-3-6.22-4.52-1-.78-2.07-1.57-3.11-2.41-.53-.42-1-.86-1.59-1.35a11.7,11.7,0,0,1-1.78-1.93,3,3,0,0,1,4.59-3.79Z" transform="translate(-24.52 -56.73)" style="fill: #a7a9ac"/>
  </g>
  <g id="trunk">
    <path d="M326.27,285.58" transform="translate(-24.52 -56.73)" style="fill: none;stroke: #a7a9ac;stroke-linecap: round;stroke-linejoin: round;stroke-width: 5.87479936494132px"/>
    <path d="M299.92,282.25" transform="translate(-24.52 -56.73)" style="fill: none;stroke: #a7a9ac;stroke-linecap: round;stroke-linejoin: round;stroke-width: 5.87479936494132px"/>
    <path d="M303.15,277.38" transform="translate(-24.52 -56.73)" style="fill: none;stroke: #a7a9ac;stroke-linecap: round;stroke-linejoin: round;stroke-width: 6.04265061529264px"/>
    <path d="M227.14,171.53a37.13,37.13,0,0,1-3.91-5.43c-1.12-1.83-2.13-3.64-3.14-5.42a56.09,56.09,0,0,0-6.61-9.83l0,0a2.09,2.09,0,0,1,3-2.91,58.68,58.68,0,0,1,7.9,10.12c1.15,1.73,2.27,3.44,3.41,5.06a32,32,0,0,0,3.6,4.36h0a2.94,2.94,0,0,1-4.1,4.21Z" transform="translate(-24.52 -56.73)" style="fill: #a7a9ac"/>
    <path d="M287.34,224.78l-1.48.1-1.63.19-3.34.45-6.74,1-13.54,2.13c-4.52.7-9.06,1.38-13.62,2a119,119,0,0,1-14,1.19,2.1,2.1,0,0,1-.1-4.19H233a120.25,120.25,0,0,0,13.29-1.56c4.48-.72,9-1.53,13.44-2.36l13.46-2.54,6.77-1.24,3.44-.58,1.77-.25c.61-.08,1.29-.13,1.93-.19a2.93,2.93,0,1,1,.55,5.84h-.05Z" transform="translate(-24.52 -56.73)" style="fill: #a7a9ac"/>
    <path d="M306.86,330.16a11.23,11.23,0,0,1-2.71,5.15,34.86,34.86,0,0,1-3.32,3.42,79.13,79.13,0,0,1-7.1,5.62c-4.86,3.45-9.88,6.56-15,9.48s-10.34,5.63-15.69,8.1c-2.68,1.23-5.39,2.4-8.18,3.44-1.39.53-2.8,1-4.26,1.43a21.24,21.24,0,0,1-4.63.88,1.35,1.35,0,0,1-.17-2.7h0a18.35,18.35,0,0,0,3.91-1c1.32-.45,2.65-1,4-1.54,2.63-1.12,5.22-2.38,7.79-3.7,5.12-2.65,10.13-5.57,15-8.64s9.65-6.35,14.16-9.86a74.39,74.39,0,0,0,6.37-5.54,28.7,28.7,0,0,0,2.64-3,12.72,12.72,0,0,0,1-1.46c.09-.21.18-.42.28-.63a2.22,2.22,0,0,1,.11-.41l.46-1a2.84,2.84,0,0,1,5.34,1.84Z" transform="translate(-24.52 -56.73)" style="fill: #a7a9ac"/>
    <path d="M313.44,350a11.93,11.93,0,0,1,.14,1.34,7.5,7.5,0,0,1-.1,1l-.07.49-.1.4-.22.79a22,22,0,0,1-1.09,2.72,46.56,46.56,0,0,1-2.63,4.73,95.45,95.45,0,0,1-6.05,8.53,148.32,148.32,0,0,1-13.93,15.27,127.72,127.72,0,0,1-16,13,76,76,0,0,1-18.45,9.43,1.37,1.37,0,0,1-.92-2.58h0a72.72,72.72,0,0,0,17.31-9.72,122.31,122.31,0,0,0,15-13.22A144,144,0,0,0,299.26,367a91.47,91.47,0,0,0,5.4-8.27,40.49,40.49,0,0,0,2.16-4.25,17.26,17.26,0,0,0,.73-2l.1-.44.05-.22v-.14c0-.08,0-.23,0-.24s0,.06,0,.08a2.94,2.94,0,1,1,5.69-1.45Z" transform="translate(-24.52 -56.73)" style="fill: #a7a9ac"/>
    <path d="M277.24,208.39a62.21,62.21,0,0,1,3.42-18.82,97.3,97.3,0,0,1,7.77-17.13A113.07,113.07,0,0,1,299,157a80.68,80.68,0,0,1,13.4-13.23A2.1,2.1,0,0,1,315,147.1l-.05,0a76,76,0,0,0-12.31,12.76,107.12,107.12,0,0,0-9.78,15,91,91,0,0,0-7,16.35,56.72,56.72,0,0,0-2.75,17.15,2.94,2.94,0,1,1-5.87.07Z" transform="translate(-24.52 -56.73)" style="fill: #a7a9ac"/>
    <path d="M296.52,234.81c4.79-2.86,9.52-5.45,14.33-8s9.62-5.06,14.5-7.49,9.78-4.78,14.79-7a117.21,117.21,0,0,1,15.52-5.8,2.09,2.09,0,0,1,1.23,4l-.07,0a114.77,114.77,0,0,0-14.5,6.38c-4.77,2.42-9.48,5-14.14,7.68s-9.3,5.39-13.89,8.19-9.17,5.67-13.5,8.61l-.05,0a3.93,3.93,0,1,1-4.41-6.5Z" transform="translate(-24.52 -56.73)" style="fill: #a7a9ac"/>
    <path d="M307.37,260.84a16.64,16.64,0,0,0,5.6,1.5,52.21,52.21,0,0,0,6.56.33c4.48,0,9-.4,13.59-.85s9.13-1,13.72-1.58c2.3-.27,4.61-.54,6.94-.77s4.67-.42,7.14-.41A2,2,0,0,1,361,263h-.05a65.41,65.41,0,0,0-6.67.62c-2.26.3-4.53.64-6.81,1-4.55.71-9.13,1.44-13.75,2.07s-9.27,1.17-14,1.37a59.23,59.23,0,0,1-7.28-.11,21.8,21.8,0,0,1-7.75-1.92,2.94,2.94,0,1,1,2.53-5.3l.1,0Z" transform="translate(-24.52 -56.73)" style="fill: #a7a9ac"/>
    <path d="M304.65,295.47c-.49.14-1,.3-1.46.42l-1.3.3c-.85.18-1.67.34-2.51.5-1.65.3-3.3.59-4.94.86l-9.82,1.54-9.8,1.47c-3.25.51-6.55,1-9.67,1.59h-.06a2.09,2.09,0,0,1-.88-4.09c3.34-.79,6.56-1.4,9.82-2.05l9.73-1.89,9.68-1.94c1.61-.34,3.21-.68,4.79-1.05l2.32-.56,1.11-.31.91-.3.31-.1a2.93,2.93,0,0,1,1.85,5.57Z" transform="translate(-24.52 -56.73)" style="fill: #a7a9ac"/>
    <path d="M306.49,313.15a4.31,4.31,0,0,0,1,1.1,12.29,12.29,0,0,0,1.8,1.23,33.39,33.39,0,0,0,4.42,2.08,89.93,89.93,0,0,0,9.81,3.17c6.72,1.83,13.62,3.25,20.54,4.54,13.86,2.54,27.88,4.47,41.92,6.14a2.1,2.1,0,0,1-.45,4.17c-14.14-1.4-28.26-3.06-42.33-5.36-7-1.16-14.06-2.46-21.06-4.21a97.82,97.82,0,0,1-10.47-3.16,38.33,38.33,0,0,1-5.23-2.36,17.82,17.82,0,0,1-2.62-1.72,9.79,9.79,0,0,1-2.51-2.85v0a2.94,2.94,0,1,1,5.12-2.88A.83.83,0,0,1,306.49,313.15Z" transform="translate(-24.52 -56.73)" style="fill: #a7a9ac"/>
    <path d="M218.1,156.75a23.34,23.34,0,0,1-2.16-8.6,51.27,51.27,0,0,1,.08-8.41,70.31,70.31,0,0,1,1.21-8.21,59.5,59.5,0,0,1,2.19-8,1.26,1.26,0,0,1,2.4.78v0a57.32,57.32,0,0,0-1.69,7.74,65.56,65.56,0,0,0-.75,7.9,47,47,0,0,0,.32,7.8,19.45,19.45,0,0,0,2.07,7l0,.05a2.1,2.1,0,1,1-3.64,2.08Z" transform="translate(-24.52 -56.73)" style="fill: #a7a9ac"/>
    <path d="M264.59,302.21l-2.2-.3-2-.45c-1.34-.29-2.58-.69-3.88-1l-3.77-1.16L249,298c-5-1.68-9.87-3.45-14.76-5.24l-14.66-5.4c-4.88-1.78-9.78-3.63-14.66-5.09l0,0a1.26,1.26,0,0,1,.7-2.43c5.14,1.4,10,3.11,15,4.76l14.79,5c4.93,1.65,9.86,3.28,14.81,4.81l3.71,1.12,3.72,1c1.23.29,2.48.66,3.69.89l1.82.36,1.67.18.33,0a2.09,2.09,0,1,1-.46,4.16Z" transform="translate(-24.52 -56.73)" style="fill: #a7a9ac"/>
    <path d="M385.7,331.39a61.39,61.39,0,0,0,9.86-1.46c3.36-.71,6.73-1.51,10.1-2.29s6.76-1.58,10.17-2.3,6.86-1.37,10.38-1.78a1.38,1.38,0,0,1,.36,2.73h0c-3.35.5-6.7,1.26-10,2.08s-6.67,1.73-10,2.63-6.69,1.82-10.09,2.66a63.36,63.36,0,0,1-10.61,1.93,2.1,2.1,0,0,1-.3-4.19h.19Z" transform="translate(-24.52 -56.73)" style="fill: #a7a9ac"/>
    <path d="M355.65,206.51a39.78,39.78,0,0,0,8.62-4.37c2.86-1.79,5.69-3.71,8.55-5.62s5.74-3.82,8.75-5.59a42.08,42.08,0,0,1,9.7-4.46,1.48,1.48,0,0,1,1.84,1,1.51,1.51,0,0,1-1,1.84h-.07a40.38,40.38,0,0,0-8.79,4.4c-2.85,1.79-5.63,3.75-8.41,5.74s-5.58,4-8.48,5.93c-.72.49-1.45,1-2.2,1.43s-1.49.93-2.29,1.37a28.71,28.71,0,0,1-5.06,2.33,2.1,2.1,0,0,1-1.38-4l.06,0Z" transform="translate(-24.52 -56.73)" style="fill: #a7a9ac"/>
    <path d="M242.79,181.1" transform="translate(-24.52 -56.73)" style="fill: none"/>
    <path d="M229.26,169.5" transform="translate(-24.52 -56.73)" style="fill: none"/>
    <path d="M313.66,145.47c5.38-4.9,10.2-8.72,14.86-12.4" transform="translate(-24.52 -56.73)" style="fill: none;stroke: #a7a9ac;stroke-linecap: round;stroke-linejoin: round;stroke-width: 4.19628526067237px"/>
    <path d="M357,134.75a19.85,19.85,0,0,0,5.75-1.2,26.17,26.17,0,0,0,5.29-2.76c3.4-2.24,6.74-4.94,10.6-6.93a1.26,1.26,0,0,1,1.16,2.23,47,47,0,0,0-5.19,3.23c-1.69,1.17-3.37,2.43-5.17,3.61a28.46,28.46,0,0,1-5.79,3,22.67,22.67,0,0,1-6.49,1.38,1.3,1.3,0,1,1-.17-2.6h0Z" transform="translate(-24.52 -56.73)" style="fill: #a7a9ac"/>
    <path d="M356.24,206.42a42.64,42.64,0,0,1,9.61,1.81c3,.86,6,1.82,8.91,2.74s5.87,1.82,8.82,2.54a42.4,42.4,0,0,0,8.83,1.37h0a1.39,1.39,0,0,1,0,2.78,45.39,45.39,0,0,1-9.52-1.09c-3.09-.64-6.11-1.44-9.1-2.25s-6-1.65-8.92-2.37a38.79,38.79,0,0,0-8.63-1.33h-.09a2.1,2.1,0,1,1,0-4.2Z" transform="translate(-24.52 -56.73)" style="fill: #a7a9ac"/>
    <path d="M386.23,331.45a19.81,19.81,0,0,1,5.16,2.4c.77.47,1.47,1,2.21,1.47l2.09,1.54,8,6.24a89.06,89.06,0,0,0,8.18,5.66,38.47,38.47,0,0,0,8.85,4h0a1.41,1.41,0,0,1-.74,2.72,40.54,40.54,0,0,1-9.7-4,92.44,92.44,0,0,1-8.69-5.57l-8.19-6-2-1.4c-.69-.42-1.37-.89-2.05-1.27a16.22,16.22,0,0,0-4-1.76l-.14,0a2.1,2.1,0,1,1,1-4.07Z" transform="translate(-24.52 -56.73)" style="fill: #a7a9ac"/>
    <path d="M265.14,302.16a64.42,64.42,0,0,0-9.07,3c-3,1.21-6.08,2.51-9.12,3.81s-6.1,2.62-9.21,3.86c-1.55.62-3.12,1.22-4.72,1.77-.82.26-1.61.55-2.47.76-.43.1-.83.24-1.29.32l-1.37.23a1.42,1.42,0,0,1-.48-2.8h0l.15,0A25.73,25.73,0,0,0,232,311.8c1.51-.58,3-1.21,4.51-1.87,3-1.32,6-2.73,9-4.13s6-2.82,9.07-4.16a67,67,0,0,1,9.64-3.58,2.1,2.1,0,1,1,1.07,4.06l-.06,0Z" transform="translate(-24.52 -56.73)" style="fill: #a7a9ac"/>
    <path d="M385.88,411.39q3.36,2.4,6.76,4.73l6.86,4.68c2.3,1.59,4.56,3.28,6.73,5s4.28,3.57,6.37,5.4a1.26,1.26,0,0,1,.11,1.76,1.23,1.23,0,0,1-1.7.15,135.13,135.13,0,0,0-13.39-9.47l-7.1-4.26q-3.57-2.15-7.1-4.37a2.2,2.2,0,0,1,2.35-3.73l.1.06Z" transform="translate(-24.52 -56.73)" style="fill: #a7a9ac"/>
    <path d="M423.67,439.56c-6.09-2.7-7.13-3.34-11.87-7.36" transform="translate(-24.52 -56.73)" style="fill: none;stroke: #a7a9ac;stroke-linecap: round;stroke-linejoin: round;stroke-width: 2.51777115640342px"/>
    <path d="M233,231.82a33.72,33.72,0,0,1-6.77-1.1c-2.12-.55-4.2-1.17-6.25-1.83-4.1-1.33-8.12-2.78-12.12-4.27-8-3-15.92-6.11-23.92-8.86h0a1.36,1.36,0,0,1,.85-2.59c8.18,2.55,16.19,5.47,24.24,8.19,4,1.37,8,2.69,12.08,3.87q3,.89,6.06,1.59a30.53,30.53,0,0,0,5.84.81h.07a2.1,2.1,0,0,1,0,4.19Z" transform="translate(-24.52 -56.73)" style="fill: #a7a9ac"/>
    <path d="M228.93,172.41a100.83,100.83,0,0,1-16.09-3.95,147.66,147.66,0,0,1-15.26-5.92,1.82,1.82,0,0,1,1.37-3.36h0a145.41,145.41,0,0,0,15.18,4.7,96.79,96.79,0,0,0,15.44,2.69h0a2.94,2.94,0,1,1-.48,5.86Z" transform="translate(-24.52 -56.73)" style="fill: #a7a9ac"/>
    <path d="M213.49,150.87a97.91,97.91,0,0,0-7.63-7.48c-2.68-2.36-5.52-4.6-8.35-6.9a1.26,1.26,0,0,1,1.52-2c3,2.06,6,4.09,8.95,6.31a101.2,101.2,0,0,1,8.48,7.13A2.1,2.1,0,1,1,213.6,151Z" transform="translate(-24.52 -56.73)" style="fill: #a7a9ac"/>
    <path d="M197.65,162.56a22.11,22.11,0,0,0-2.78-.72l-1.48-.28-1.53-.19c-1-.15-2-.24-3.08-.32s-2.07-.17-3.12-.22c-4.17-.23-8.37-.3-12.58-.28s-8.43.11-12.64.26-8.44.36-12.61.68h0a1.24,1.24,0,0,1-.21-2.47c4.25-.42,8.47-.71,12.71-1s8.47-.43,12.72-.55,8.51-.13,12.78,0c1.07,0,2.14.08,3.22.16s2.15.13,3.23.26l1.63.17,1.64.27a26.09,26.09,0,0,1,3.37.81,1.8,1.8,0,0,1-1,3.47h0Z" transform="translate(-24.52 -56.73)" style="fill: #a7a9ac"/>
    <path d="M184.88,128.25a53,53,0,0,1,13.39,7.23" transform="translate(-24.52 -56.73)" style="fill: none;stroke: #a7a9ac;stroke-linecap: round;stroke-linejoin: round;stroke-width: 2.51777115640342px"/>
    <path d="M166.78,122.77c6.56,1.84,13.68,3.59,18.1,5.48" transform="translate(-24.52 -56.73)" style="fill: none;stroke: #a7a9ac;stroke-linecap: round;stroke-linejoin: round;stroke-width: 2.51777115640342px"/>
    <path d="M183.65,102.12c.8,5.07-3.68,24.86,1.23,26.13" transform="translate(-24.52 -56.73)" style="fill: none;stroke: #a7a9ac;stroke-linecap: round;stroke-linejoin: round;stroke-width: 2.51777115640342px"/>
    <path d="M335,451.1a19.79,19.79,0,0,1-7.19,2.3c-2.38.36-4.72.55-7,.76s-4.62.42-6.87.76a31.64,31.64,0,0,0-6.51,1.61h0a1.26,1.26,0,0,1-.93-2.34,33,33,0,0,1,7-1.87c2.35-.4,4.7-.65,7-.89s4.63-.47,6.85-.85a17.45,17.45,0,0,0,6.05-2l.06,0a1.48,1.48,0,1,1,1.56,2.51Z" transform="translate(-24.52 -56.73)" style="fill: #a7a9ac"/>
    <path d="M327.65,374.61a25.18,25.18,0,0,0,2.57,2.63c.51.43.95.89,1.5,1.31l1.64,1.27c2.21,1.68,4.59,3.26,7,4.81,4.84,3.08,9.89,6,15,8.85l15.36,8.58c5.12,2.92,10.26,5.8,15.23,9.32a2.24,2.24,0,0,1-2.49,3.72l-.07,0c-4.75-3-10-5.67-15.18-8.29L352.43,399c-5.27-2.63-10.53-5.32-15.73-8.27-2.6-1.48-5.18-3-7.73-4.76l-1.91-1.33c-.64-.44-1.26-1-1.89-1.48a32.38,32.38,0,0,1-3.71-3.49,4,4,0,1,1,5.7-5.55l0,0Z" transform="translate(-24.52 -56.73)" style="fill: #a7a9ac"/>
    <path d="M360.54,105.19c-2.31,2.8-4.76,5.36-7.23,7.91s-5,5-7.55,7.49-5.13,4.88-7.75,7.27c-1.32,1.2-2.64,2.38-4,3.55-.67.59-1.37,1.16-2.07,1.74l-1.09.86c-.37.29-.83.59-1.24.88a2.12,2.12,0,1,1-2.42-3.47h0l.23-.16c.31-.21.6-.38.93-.62l1-.75c.67-.53,1.35-1,2-1.61,1.35-1.09,2.68-2.22,4-3.36q4-3.42,7.88-7c2.59-2.37,5.16-4.76,7.68-7.19s5-4.92,7.26-7.5l0,0a1.51,1.51,0,0,1,2.3,2Z" transform="translate(-24.52 -56.73)" style="fill: #a7a9ac"/>
    <path d="M327.9,131.38a13.24,13.24,0,0,1,4.15-.57,31.32,31.32,0,0,1,3.81.28c2.48.32,4.87.8,7.24,1.29s4.71,1,7,1.44a51.09,51.09,0,0,0,7,.92h0a1.31,1.31,0,0,1-.08,2.62,54,54,0,0,1-7.38-.72c-2.41-.37-4.79-.8-7.15-1.21s-4.71-.78-7-1a16.58,16.58,0,0,0-6.36.33l-.13.05a1.8,1.8,0,0,1-1.17-3.41Z" transform="translate(-24.52 -56.73)" style="fill: #a7a9ac"/>
    <path d="M328,375.33l1,2.42.82,2.34c.55,1.56.95,3.09,1.42,4.63s.83,3.07,1.2,4.6.74,3.08,1.07,4.62q2,9.24,3.14,18.59A159.78,159.78,0,0,1,338,431.36a66.64,66.64,0,0,1-2.3,18.92,1.56,1.56,0,0,1-3-.79l0-.05a63.6,63.6,0,0,0,1-17.95,158.93,158.93,0,0,0-2.38-18.13c-1.12-6-2.51-12-4.19-17.81-.41-1.47-.86-2.92-1.3-4.37s-.94-2.87-1.41-4.31-1-2.83-1.58-4.16l-.84-2-.9-1.79-.16-.32a3.9,3.9,0,0,1,7-3.49A2.14,2.14,0,0,1,328,375.33Z" transform="translate(-24.52 -56.73)" style="fill: #a7a9ac"/>
  </g>
  <g id="tips">
    <path d="M334.23,408.65a36.19,36.19,0,0,0-2.69,3L328.82,415c-1.83,2.23-3.68,4.44-5.6,6.6a118.76,118.76,0,0,1-12.35,12.22,67,67,0,0,1-14.57,9.61,39.74,39.74,0,0,1-17.06,4,1,1,0,0,1,0-2h0a37.57,37.57,0,0,0,16.05-4.12,64.92,64.92,0,0,0,13.83-9.54,116.19,116.19,0,0,0,11.8-12.19c1.84-2.16,3.62-4.37,5.39-6.61l2.66-3.39a38.14,38.14,0,0,1,3-3.43,1.7,1.7,0,1,1,2.39,2.42l0,0Z" transform="translate(-24.52 -56.73)" style="fill: #a7a9ac"/>
    <path d="M335.72,450a28.84,28.84,0,0,1-.62,3c-.24.94-.5,1.86-.77,2.78-.55,1.84-1.14,3.65-1.77,5.45-1.26,3.6-2.64,7.14-4.2,10.62A81,81,0,0,1,323,482a35.19,35.19,0,0,1-3.45,4.65,13.54,13.54,0,0,1-4.74,3.61.68.68,0,0,1-.55-1.25l0,0a12.16,12.16,0,0,0,4.05-3.38,34.44,34.44,0,0,0,3.11-4.55A80.35,80.35,0,0,0,326.3,471c1.39-3.46,2.62-7,3.72-10.57q.83-2.69,1.52-5.39a42.27,42.27,0,0,0,1.08-5.3v-.05a1.56,1.56,0,0,1,3.1.35Z" transform="translate(-24.52 -56.73)" style="fill: #a7a9ac"/>
    <path d="M307.28,456.57c-3.42.93-6.73,1.45-10.08,2l-10,1.67c-3.33.57-6.64,1.18-9.91,1.9a51.09,51.09,0,0,0-9.54,2.85h0a.69.69,0,0,1-.91-.35.69.69,0,0,1,.33-.89,53,53,0,0,1,9.77-3.23c3.3-.82,6.61-1.53,9.93-2.2l9.95-1.95c3.29-.67,6.64-1.3,9.72-2.25h.06a1.26,1.26,0,1,1,.73,2.41Z" transform="translate(-24.52 -56.73)" style="fill: #a7a9ac"/>
    <path d="M307.6,456.41a18.26,18.26,0,0,0-4.88,5.65c-1.38,2.23-2.61,4.61-3.92,7a48.29,48.29,0,0,1-4.41,6.91,16.16,16.16,0,0,1-6.56,5.18.7.7,0,0,1-.89-.4.68.68,0,0,1,.38-.87,14.76,14.76,0,0,0,5.76-4.93,46.74,46.74,0,0,0,4-6.8c1.2-2.38,2.35-4.82,3.71-7.21a20.41,20.41,0,0,1,5.39-6.6,1.26,1.26,0,1,1,1.49,2l0,0Z" transform="translate(-24.52 -56.73)" style="fill: #a7a9ac"/>
    <path d="M363,400.11a10.24,10.24,0,0,1,2.2,3.1,15.58,15.58,0,0,1,1,3.32,37.09,37.09,0,0,1,.56,6.37c.07,4.15-.08,8.17.15,12.15a39.62,39.62,0,0,0,2.15,11.55,24.92,24.92,0,0,0,6.36,9.67h0a1,1,0,0,1-1.35,1.48,27.26,27.26,0,0,1-7.33-10.25A42.15,42.15,0,0,1,364,425.27c-.4-4.13-.41-8.25-.64-12.23a33.74,33.74,0,0,0-.71-5.74,12.58,12.58,0,0,0-.85-2.47,6.68,6.68,0,0,0-1.37-1.8l-.05,0a2,2,0,1,1,2.61-2.92Z" transform="translate(-24.52 -56.73)" style="fill: #a7a9ac"/>
    <path d="M424.54,438.88a34.75,34.75,0,0,0,6,6.14,39,39,0,0,0,7.34,4.6,46.27,46.27,0,0,0,8.18,3,58.63,58.63,0,0,0,8.64,1.47h0a.68.68,0,0,1-.12,1.36,59.6,59.6,0,0,1-8.91-1.29,48.35,48.35,0,0,1-8.57-2.91,41.14,41.14,0,0,1-7.81-4.64,37.54,37.54,0,0,1-6.55-6.36,1.1,1.1,0,1,1,1.72-1.38h0Z" transform="translate(-24.52 -56.73)" style="fill: #a7a9ac"/>
    <path d="M408.7,428.4a31.6,31.6,0,0,1,1.32,8.52,59.76,59.76,0,0,0,.88,8.09,28.07,28.07,0,0,0,2.55,7.59,32,32,0,0,0,4.63,6.59v0a.68.68,0,0,1-1,.93,33.84,33.84,0,0,1-5.11-6.76,30.36,30.36,0,0,1-3-8,63.36,63.36,0,0,1-1.21-8.33,29.45,29.45,0,0,0-1.43-7.76l0-.05a1.26,1.26,0,0,1,2.35-.92Z" transform="translate(-24.52 -56.73)" style="fill: #a7a9ac"/>
    <path d="M397.89,420.33A22.08,22.08,0,0,0,408,421.45c3.53-.29,7.08-1,10.64-1.61,7.12-1.32,14.4-2.51,21.74-2.39a.67.67,0,0,1,.67.69.69.69,0,0,1-.68.67c-7.19.08-14.27,1.43-21.35,2.94-3.55.73-7.12,1.51-10.81,1.92a24.33,24.33,0,0,1-11.3-1,1.25,1.25,0,0,1-.73-1.62,1.27,1.27,0,0,1,1.62-.74h0Z" transform="translate(-24.52 -56.73)" style="fill: #a7a9ac"/>
    <path d="M384.79,411.72a28.75,28.75,0,0,0,10.57-.93,97.89,97.89,0,0,0,10.42-3.66,92.93,92.93,0,0,1,10.7-3.65,52.47,52.47,0,0,1,11.21-1.69.69.69,0,0,1,.72.66.68.68,0,0,1-.63.7h0a50.11,50.11,0,0,0-10.8,2,90.85,90.85,0,0,0-10.34,4,101.82,101.82,0,0,1-10.55,4.14,31.41,31.41,0,0,1-11.56,1.42h0a1.51,1.51,0,0,1,.23-3Z" transform="translate(-24.52 -56.73)" style="fill: #a7a9ac"/>
    <path d="M423.42,438.54a81.51,81.51,0,0,1,18.71-2.15c6.26-.06,12.49.36,18.7.87a.69.69,0,0,1,.63.74.7.7,0,0,1-.73.63c-6.2-.39-12.4-.68-18.57-.5a79.72,79.72,0,0,0-18.23,2.45,1.05,1.05,0,1,1-.54-2Z" transform="translate(-24.52 -56.73)" style="fill: #a7a9ac"/>
    <path d="M254.77,407.81l-2,.26-1.91.1c-1.27.08-2.51.07-3.77.1q-3.75,0-7.48-.06l-14.9-.4c-5-.14-9.91-.28-14.87-.34-2.47,0-4.95,0-7.41,0-1.23,0-2.47.06-3.69.15s-2.42.22-3.62.38h-.07a.68.68,0,0,1-.2-1.35,35.51,35.51,0,0,1,3.78-.48c1.25-.13,2.5-.18,3.74-.24,2.5-.12,5-.17,7.47-.2,5-.06,10,0,14.91,0l14.88.06c2.47,0,5,0,7.41-.11,1.22-.06,2.46-.08,3.66-.18l1.81-.14,1.7-.26.17,0a1.36,1.36,0,1,1,.4,2.7Z" transform="translate(-24.52 -56.73)" style="fill: #a7a9ac"/>
    <path d="M255.2,407.62a105.66,105.66,0,0,1-14.2,6.73c-4.84,1.92-9.78,3.61-14.78,5a125.94,125.94,0,0,1-15.26,3.4,67.06,67.06,0,0,1-15.64.76.67.67,0,0,1-.62-.74.69.69,0,0,1,.72-.63,65.28,65.28,0,0,0,15.27-1.07,123.8,123.8,0,0,0,14.94-3.67c4.91-1.52,9.75-3.28,14.48-5.28a104.37,104.37,0,0,0,13.67-6.83l0,0a1.34,1.34,0,0,1,1.41,2.29Z" transform="translate(-24.52 -56.73)" style="fill: #a7a9ac"/>
    <path d="M250.55,366.82l-2.52.78c-.84.24-1.68.4-2.52.6-1.68.43-3.37.67-5,1s-3.37.53-5.05.8l-5.06.67c-6.75.83-13.52,1.44-20.29,1.92s-13.55.84-20.34,1-13.59.18-20.4-.32a.68.68,0,0,1-.63-.73.67.67,0,0,1,.72-.63h0c6.72.4,13.49.28,20.25.05s13.51-.69,20.24-1.25,13.47-1.27,20.16-2.18l5-.73c1.66-.28,3.32-.54,5-.85s3.31-.61,4.92-1c.8-.21,1.62-.38,2.41-.62l2.32-.74.12,0a1.22,1.22,0,0,1,.74,2.32Z" transform="translate(-24.52 -56.73)" style="fill: #a7a9ac"/>
    <path d="M246,367.67c-6,.19-11.62-1-17.24-2L212,362.35c-5.57-1.09-11.15-2.09-16.76-2.86a133.08,133.08,0,0,0-16.9-1.38.69.69,0,0,1,0-1.37,133.9,133.9,0,0,1,17.11,1.06c5.67.67,11.31,1.57,16.92,2.55l16.79,3c5.56.91,11.24,1.9,16.61,1.62h.1a1.35,1.35,0,1,1,.14,2.69Z" transform="translate(-24.52 -56.73)" style="fill: #a7a9ac"/>
    <path d="M425.68,323.78a110.69,110.69,0,0,1,18.24-9,58.4,58.4,0,0,1,9.88-2.59,73.5,73.5,0,0,1,10.13-.93.69.69,0,0,1,.06,1.37,72.28,72.28,0,0,0-9.88,1.23,56.75,56.75,0,0,0-9.48,2.82,108.8,108.8,0,0,0-17.54,9.38h0a1.35,1.35,0,1,1-1.43-2.28Z" transform="translate(-24.52 -56.73)" style="fill: #a7a9ac"/>
    <path d="M426.61,323.6a260.11,260.11,0,0,0,30.19,3.25c5.06.28,10.14.44,15.21.45s10.14-.12,15.18-.54h0a.68.68,0,0,1,.13,1.36c-5.1.54-10.2.78-15.31.88s-10.21.05-15.31-.12a265.45,265.45,0,0,1-30.54-2.62,1.35,1.35,0,1,1,.4-2.67h0Z" transform="translate(-24.52 -56.73)" style="fill: #a7a9ac"/>
    <path d="M419.65,353a50.42,50.42,0,0,1,14.65-5.15,123.47,123.47,0,0,1,15.15-2.11c10.13-.86,20.29-.88,30.4-.73a.68.68,0,0,1,.68.69.69.69,0,0,1-.68.68c-10.11.07-20.2.31-30.21,1.38a120.57,120.57,0,0,0-14.83,2.4,48.4,48.4,0,0,0-13.76,5.14l0,0a1.35,1.35,0,1,1-1.4-2.31Z" transform="translate(-24.52 -56.73)" style="fill: #a7a9ac"/>
    <path d="M421,353c6.35,3.82,13.71,5.83,21.17,6.8s15.11.91,22.75,1a.68.68,0,0,1,0,1.36h0c-7.6.15-15.29.46-23-.33s-15.4-2.62-22.3-6.5A1.35,1.35,0,0,1,421,353l0,0Z" transform="translate(-24.52 -56.73)" style="fill: #a7a9ac"/>
    <path d="M361.15,259.16c13.48,1.83,27,3.61,40.48,5,6.76.68,13.53,1.25,20.3,1.6a174.21,174.21,0,0,0,20.31,0h0a.69.69,0,0,1,.11,1.37,177.61,177.61,0,0,1-20.5.57c-6.83-.16-13.64-.54-20.45-1-13.6-1-27.17-2.36-40.71-3.79a1.88,1.88,0,0,1,.39-3.74Z" transform="translate(-24.52 -56.73)" style="fill: #a7a9ac"/>
    <path d="M360.13,259.51a67.85,67.85,0,0,1,16-5c5.43-1.08,10.9-1.78,16.37-2.31A308.16,308.16,0,0,1,425.35,251a.69.69,0,0,1,0,1.37,305.55,305.55,0,0,0-32.59,2.19c-5.39.7-10.75,1.56-16,2.78a64.54,64.54,0,0,0-15,5.24l0,0a1.71,1.71,0,0,1-2.31-.72,1.73,1.73,0,0,1,.71-2.32Z" transform="translate(-24.52 -56.73)" style="fill: #a7a9ac"/>
    <path d="M391.52,215.25a34.74,34.74,0,0,1,12.6-6.46,72.29,72.29,0,0,1,13.68-2.49c4.6-.45,9.2-.61,13.78-.69s9.16-.05,13.68-.34h0a.69.69,0,0,1,.72.64.67.67,0,0,1-.62.73c-4.6.41-9.18.48-13.74.68s-9.11.46-13.6,1a70.41,70.41,0,0,0-13.21,2.73,32.13,32.13,0,0,0-11.52,6.24h0a1.35,1.35,0,0,1-1.79-2Z" transform="translate(-24.52 -56.73)" style="fill: #a7a9ac"/>
    <path d="M393.09,215.1a51.63,51.63,0,0,0,12.49,5.28A49.07,49.07,0,0,0,419.1,222a96.94,96.94,0,0,0,13.74-1.39,116.66,116.66,0,0,1,13.94-1.73.68.68,0,0,1,.06,1.36h0a116.3,116.3,0,0,0-13.71,2,98.24,98.24,0,0,1-14,1.76A51.19,51.19,0,0,1,405,222.67a54.34,54.34,0,0,1-13.27-5.23,1.35,1.35,0,0,1,1.3-2.37h0Z" transform="translate(-24.52 -56.73)" style="fill: #a7a9ac"/>
    <path d="M390.68,187a52.43,52.43,0,0,1,7.33-6.36,29.5,29.5,0,0,1,8.79-4.27,36.52,36.52,0,0,1,9.59-1.31c3.2-.07,6.36.1,9.5.16a.68.68,0,0,1,0,1.36c-3.17.06-6.33,0-9.43.17a34.68,34.68,0,0,0-9.06,1.56,27.49,27.49,0,0,0-8,4.25,50.39,50.39,0,0,0-6.72,6.27l0,0a1.35,1.35,0,0,1-2-1.83Z" transform="translate(-24.52 -56.73)" style="fill: #a7a9ac"/>
    <path d="M392.07,186.62a101.09,101.09,0,0,0,10.1,2.74,78.44,78.44,0,0,0,10.35,1.5c7,.6,14,.15,21.15.23a.68.68,0,0,1,.68.69.7.7,0,0,1-.67.68h0c-7,.13-14.12.81-21.28.43a81.61,81.61,0,0,1-10.67-1.21,103.93,103.93,0,0,1-10.46-2.49,1.35,1.35,0,1,1,.75-2.59h.06Z" transform="translate(-24.52 -56.73)" style="fill: #a7a9ac"/>
    <path d="M358.15,103.44c1.7-2.57,3.27-5.26,4.86-8s3.19-5.44,5-8.06a33.35,33.35,0,0,1,6.47-7.17,20.28,20.28,0,0,1,8.76-4.14h0a.68.68,0,0,1,.8.54.69.69,0,0,1-.51.8,18.73,18.73,0,0,0-7.94,4.15,31.45,31.45,0,0,0-5.8,7c-3.3,5.21-5.9,11-9.21,16.41a1.45,1.45,0,0,1-2,.49,1.47,1.47,0,0,1-.5-2Z" transform="translate(-24.52 -56.73)" style="fill: #a7a9ac"/>
    <path d="M379.28,123.76c7.73.52,15.36,1.46,23,2.3,3.81.43,7.63.84,11.45,1.19s7.63.63,11.44.69h0a.67.67,0,0,1,.67.69.69.69,0,0,1-.68.68c-3.87,0-7.73-.18-11.57-.43s-7.68-.59-11.51-.93c-7.66-.66-15.31-1.42-22.94-1.76h0a1.23,1.23,0,0,1-1.17-1.27,1.22,1.22,0,0,1,1.27-1.16Z" transform="translate(-24.52 -56.73)" style="fill: #a7a9ac"/>
    <path d="M303.49,153a29.71,29.71,0,0,1,12.85-.59,77.35,77.35,0,0,1,12,2.94c3.88,1.22,7.68,2.58,11.49,3.79a48,48,0,0,0,11.56,2.54h0a.68.68,0,0,1,0,1.36,49.13,49.13,0,0,1-12.13-1.89c-3.94-1-7.81-2.12-11.68-3.09A75.75,75.75,0,0,0,315.93,156a25.9,25.9,0,0,0-11.07,1.12h0a2.13,2.13,0,1,1-1.49-4Z" transform="translate(-24.52 -56.73)" style="fill: #a7a9ac"/>
    <path d="M357.15,134.76a47.41,47.41,0,0,1,8.7,1.5,80.66,80.66,0,0,1,8.24,2.81c2.68,1,5.32,2.08,8,2.85a31.91,31.91,0,0,0,8.29,1.28.69.69,0,0,1,0,1.37,33.68,33.68,0,0,1-8.72-1c-2.84-.7-5.57-1.67-8.28-2.61a78.63,78.63,0,0,0-8.12-2.46,44.69,44.69,0,0,0-8.28-1.13h0a1.29,1.29,0,0,1,.1-2.57Z" transform="translate(-24.52 -56.73)" style="fill: #a7a9ac"/>
    <path d="M378.64,123.88c2-1,3.95-2.09,5.89-3.24s3.89-2.34,6-3.38a24.49,24.49,0,0,1,6.67-2.18,37.61,37.61,0,0,1,6.93-.46.68.68,0,0,1,0,1.36h0a37.15,37.15,0,0,0-6.61.71,22.7,22.7,0,0,0-6.12,2.28c-1.93,1-3.79,2.31-5.71,3.55s-3.87,2.43-5.89,3.55a1.24,1.24,0,0,1-1.2-2.16l0,0Z" transform="translate(-24.52 -56.73)" style="fill: #a7a9ac"/>
    <path d="M336.86,124.56a66.32,66.32,0,0,0,2.35-9.12,72.4,72.4,0,0,0,.94-9.43c.12-3.18.06-6.38.18-9.63a24.64,24.64,0,0,1,2-9.66.68.68,0,0,1,.91-.33.7.7,0,0,1,.34.89h0A23.15,23.15,0,0,0,342,96.42c0,3.17.17,6.39.15,9.63a74.25,74.25,0,0,1-.64,9.75,70.13,70.13,0,0,1-2.11,9.59,1.35,1.35,0,0,1-2.59-.75v-.08Z" transform="translate(-24.52 -56.73)" style="fill: #a7a9ac"/>
    <path d="M359.45,102.88a34,34,0,0,0,8.48-.5,60.2,60.2,0,0,0,8.35-2.29c2.78-.94,5.57-2,8.47-2.72a32.48,32.48,0,0,1,8.94-1.18.69.69,0,0,1,0,1.37A31.15,31.15,0,0,0,385.21,99c-2.77.84-5.47,2-8.24,3a62.8,62.8,0,0,1-8.57,2.7,36.9,36.9,0,0,1-9.09.87,1.35,1.35,0,1,1,.08-2.7h.06Z" transform="translate(-24.52 -56.73)" style="fill: #a7a9ac"/>
    <path d="M228.22,315.79a59.32,59.32,0,0,1-11.47,2.89,97.35,97.35,0,0,1-11.67,1.08,122.28,122.28,0,0,1-23.26-1.45A.68.68,0,0,1,182,317a120.75,120.75,0,0,0,23,.77,93.86,93.86,0,0,0,11.37-1.38,56.44,56.44,0,0,0,10.88-3.07h0a1.35,1.35,0,0,1,1,2.5Z" transform="translate(-24.52 -56.73)" style="fill: #a7a9ac"/>
    <path d="M227.3,315.81a52,52,0,0,1-8.8-4.2,54.49,54.49,0,0,0-8.38-4.17,43.41,43.41,0,0,0-9.06-2.19,81.89,81.89,0,0,0-9.42-.69h0a.69.69,0,0,1,0-1.37,86.22,86.22,0,0,1,9.63.37,44.77,44.77,0,0,1,9.52,2,56.17,56.17,0,0,1,8.84,4,49.91,49.91,0,0,0,8.52,3.72,1.34,1.34,0,1,1-.79,2.57h-.06Z" transform="translate(-24.52 -56.73)" style="fill: #a7a9ac"/>
    <path d="M205.25,282.41a127.94,127.94,0,0,0-16,1.36c-5.36.71-10.73,1.47-16.13,2.07a160.53,160.53,0,0,1-32.58.69.69.69,0,0,1-.62-.75.7.7,0,0,1,.74-.62,158,158,0,0,0,32.22-1.34c5.35-.7,10.68-1.57,16-2.39a128.87,128.87,0,0,1,16.32-1.71,1.35,1.35,0,0,1,.05,2.69h-.05Z" transform="translate(-24.52 -56.73)" style="fill: #a7a9ac"/>
    <path d="M204.73,282.31c-5-2.07-10-4.16-15.08-5.88a92.82,92.82,0,0,0-15.54-4.07,64.52,64.52,0,0,0-8-.76q-4-.08-8.08.08c-5.41.2-10.88.36-16.32.17a.69.69,0,1,1,0-1.37c5.4.08,10.79-.19,16.22-.5,2.71-.15,5.45-.25,8.19-.24a64.7,64.7,0,0,1,8.23.61,93.7,93.7,0,0,1,16,3.84c5.22,1.64,10.29,3.64,15.36,5.63a1.35,1.35,0,1,1-1,2.51h-.05Z" transform="translate(-24.52 -56.73)" style="fill: #a7a9ac"/>
    <path d="M233.6,231.73a177.75,177.75,0,0,1-29,4.71c-9.71.87-19.44,1.22-29.17,1.27s-19.44-.23-29.13-.82-19.38-1.49-29-3a.68.68,0,0,1,.19-1.35h0c9.57,1.28,19.23,1.92,28.89,2.29s19.33.39,29,.12,19.3-.86,28.86-1.95a174.92,174.92,0,0,0,28.22-5.27h0a2.08,2.08,0,0,1,1.15,4Z" transform="translate(-24.52 -56.73)" style="fill: #a7a9ac"/>
    <path d="M185,215.66a49.08,49.08,0,0,1-16.92,4.88,96.7,96.7,0,0,1-17.43.14c-11.54-.8-22.91-2.58-34.36-2.66a.68.68,0,1,1,0-1.36c11.58-.15,23.05,1.42,34.47,2a94.8,94.8,0,0,0,17-.46,46.68,46.68,0,0,0,16-4.92,1.35,1.35,0,0,1,1.27,2.38Z" transform="translate(-24.52 -56.73)" style="fill: #a7a9ac"/>
    <path d="M184,215.74c-10.38-3.71-20.93-7-31.8-8.73a121.65,121.65,0,0,0-16.42-1.39c-5.51-.12-11,.06-16.57.26a.68.68,0,0,1-.71-.66.69.69,0,0,1,.64-.71c5.53-.31,11.08-.6,16.66-.59a122.92,122.92,0,0,1,16.7,1.08c11.1,1.5,21.85,4.67,32.4,8.2a1.35,1.35,0,1,1-.86,2.55h0Z" transform="translate(-24.52 -56.73)" style="fill: #a7a9ac"/>
    <path d="M248.14,186.38a102.75,102.75,0,0,0-15.78-1.23c-5.36-.07-10.76.08-16.18.18-10.83.22-21.79.17-32.59-1.33a.68.68,0,0,1-.58-.77.69.69,0,0,1,.73-.59c10.75.81,21.51.19,32.27-.7,5.39-.44,10.8-.93,16.27-1.2a107.4,107.4,0,0,1,16.61.26,2.72,2.72,0,1,1-.57,5.4l-.16,0Z" transform="translate(-24.52 -56.73)" style="fill: #a7a9ac"/>
    <path d="M260.32,195a63.09,63.09,0,0,1-3-12.12,53.32,53.32,0,0,1-.18-12.43,45.62,45.62,0,0,1,2.88-12A28.74,28.74,0,0,1,266.54,148a.68.68,0,0,1,1,.94l0,0a27.21,27.21,0,0,0-5.29,10.21,43.26,43.26,0,0,0-1.78,11.45,49.93,49.93,0,0,0,1.12,11.45A58.79,58.79,0,0,0,265.24,193l0,.07a2.66,2.66,0,1,1-4.87,2.16A1.19,1.19,0,0,1,260.32,195Z" transform="translate(-24.52 -56.73)" style="fill: #a7a9ac"/>
    <path d="M301.9,256.65a92.59,92.59,0,0,0-17.48-3.34,111.51,111.51,0,0,0-18,0c-6,.43-12,1.28-18.05,2.26-3,.48-6,1-9.07,1.42-1.52.22-3.05.4-4.6.53l-2.33.12-2.38-.09a.68.68,0,0,1-.65-.71.67.67,0,0,1,.67-.65h.1l2.2,0,2.23-.24c1.49-.19,3-.45,4.46-.74,3-.57,6-1.25,8.95-1.88,6-1.29,12-2.47,18.15-3.23a116.21,116.21,0,0,1,18.58-.92,97.87,97.87,0,0,1,18.6,2.58,2.56,2.56,0,0,1-1.19,5l-.12,0Z" transform="translate(-24.52 -56.73)" style="fill: #a7a9ac"/>
    <path d="M305.93,277.92a90.36,90.36,0,0,0,17.69,9.2,155.06,155.06,0,0,0,19.31,6.32,152.87,152.87,0,0,0,20,3.83,74.71,74.71,0,0,0,20.26.06h0a.69.69,0,0,1,.25,1.35,76.55,76.55,0,0,1-20.76,1,155.39,155.39,0,0,1-20.59-2.84A157.39,157.39,0,0,1,322,291.43a95.14,95.14,0,0,1-19.25-8.8,2.84,2.84,0,1,1,3-4.83l.12.08Z" transform="translate(-24.52 -56.73)" style="fill: #a7a9ac"/>
    <path d="M317,360.5a55,55,0,0,0,13.89,6.91,102.58,102.58,0,0,0,15.44,4.09,112.72,112.72,0,0,0,32.09,1.33h0a.68.68,0,0,1,.18,1.35,115,115,0,0,1-32.78.49,107.94,107.94,0,0,1-16.21-3.33,59.41,59.41,0,0,1-15.53-6.73,2.52,2.52,0,1,1,2.71-4.25l.11.08Z" transform="translate(-24.52 -56.73)" style="fill: #a7a9ac"/>
    <path d="M147.34,161.44c-6.62-2.15-13.31-4.13-20.1-5.67-3.39-.77-6.8-1.43-10.23-1.89a44.34,44.34,0,0,0-10.28-.34h0a.68.68,0,0,1-.17-1.35,44.7,44.7,0,0,1,10.66.06c3.51.37,7,.95,10.45,1.64,6.9,1.38,13.69,3.2,20.43,5.18a1.24,1.24,0,0,1-.7,2.38h0Z" transform="translate(-24.52 -56.73)" style="fill: #a7a9ac"/>
    <path d="M197.39,162.42A223.54,223.54,0,0,0,157.22,144a163.17,163.17,0,0,0-21.37-5.75,102.12,102.12,0,0,0-22-2h0a.69.69,0,0,1,0-1.37,104.83,104.83,0,0,1,22.38,1.51A166.3,166.3,0,0,1,158,141.6a226,226,0,0,1,41.18,17.71,1.79,1.79,0,1,1-1.72,3.14l0,0Z" transform="translate(-24.52 -56.73)" style="fill: #a7a9ac"/>
    <path d="M166.46,124c-4.93-1.36-10-2.41-15.09-3.28-2.54-.43-5.1-.8-7.66-1.1a68.12,68.12,0,0,0-7.67-.51h0a.68.68,0,0,1-.68-.68.69.69,0,0,1,.65-.69,71,71,0,0,1,7.87.24c2.61.2,5.2.49,7.79.82a155.23,155.23,0,0,1,15.44,2.77,1.25,1.25,0,1,1-.58,2.44h-.06Z" transform="translate(-24.52 -56.73)" style="fill: #a7a9ac"/>
    <path d="M182.59,103a33.29,33.29,0,0,0-6.07-6.14,42.29,42.29,0,0,0-7.52-4.5c-2.67-1.3-5.45-2.47-8.15-3.91A30.17,30.17,0,0,1,153.41,83a.69.69,0,0,1,1-1,28.17,28.17,0,0,0,7.26,4.87c2.65,1.3,5.44,2.36,8.22,3.58a44.53,44.53,0,0,1,8.07,4.45,35.41,35.41,0,0,1,6.79,6.38,1.35,1.35,0,1,1-2.07,1.72l0,0Z" transform="translate(-24.52 -56.73)" style="fill: #a7a9ac"/>
    <path d="M182.31,102a45.59,45.59,0,0,1,1.36-6.73,44.67,44.67,0,0,1,2.47-6.35c1-2,2-4,2.76-6A15.39,15.39,0,0,0,190,76.72a.68.68,0,0,1,.65-.72.7.7,0,0,1,.72.62,16.84,16.84,0,0,1-.85,6.87c-.7,2.19-1.68,4.21-2.5,6.24A41.85,41.85,0,0,0,186,95.88a42.64,42.64,0,0,0-1,6.36v0a1.35,1.35,0,0,1-2.69-.22S182.31,102,182.31,102Z" transform="translate(-24.52 -56.73)" style="fill: #a7a9ac"/>
    <path d="M200.93,138.89a43.61,43.61,0,0,1-1.25-18.2,59.24,59.24,0,0,1,5.42-17.26A84,84,0,0,1,220.7,81.5a55.06,55.06,0,0,1,6.81-5.92.68.68,0,0,1,1,.16.68.68,0,0,1-.15,1h0a53.19,53.19,0,0,0-6.5,5.89A83,83,0,0,0,207,104.32,56.83,56.83,0,0,0,202.11,121a40.9,40.9,0,0,0,1.51,17v0a1.4,1.4,0,1,1-2.68.83Z" transform="translate(-24.52 -56.73)" style="fill: #a7a9ac"/>
    <path d="M219.66,123.2a14.72,14.72,0,0,1,6-4.7,21.64,21.64,0,0,1,7.3-1.3,36.68,36.68,0,0,0,6.9-.69,13.42,13.42,0,0,0,5.9-3.11h0a.68.68,0,0,1,.94,1,14.71,14.71,0,0,1-6.43,3.68,37.68,37.68,0,0,1-7.19,1,19.85,19.85,0,0,0-6.59,1.39,12.44,12.44,0,0,0-4.91,4.15v0a1.19,1.19,0,0,1-1.92-1.4Z" transform="translate(-24.52 -56.73)" style="fill: #a7a9ac"/>
    <path d="M148,161.48a40.41,40.41,0,0,0-8.77,3.21,87.12,87.12,0,0,1-8.87,4,42.6,42.6,0,0,1-9.56,2.18,66,66,0,0,1-9.73.25.68.68,0,0,1,0-1.36h0a65,65,0,0,0,9.48-.54,40.39,40.39,0,0,0,9.09-2.36,85.09,85.09,0,0,0,8.56-4.15,42.41,42.41,0,0,1,9.17-3.66h0a1.26,1.26,0,1,1,.61,2.45Z" transform="translate(-24.52 -56.73)" style="fill: #a7a9ac"/>
    <path d="M165.7,123.36a79.38,79.38,0,0,0-4.84-8.19,29.6,29.6,0,0,0-6.35-6.81,39.24,39.24,0,0,0-8.15-4.73c-2.9-1.29-5.91-2.4-8.94-3.46h0a.69.69,0,0,1,.44-1.3c3.08,1,6.15,2,9.16,3.26a40.58,40.58,0,0,1,8.65,4.7,31.8,31.8,0,0,1,7,7.07,82.12,82.12,0,0,1,5.22,8.29,1.22,1.22,0,1,1-2.13,1.2v0Z" transform="translate(-24.52 -56.73)" style="fill: #a7a9ac"/>
    <path d="M219.44,123.51c1-2.86,2.05-5.73,3.18-8.57a69,69,0,0,1,3.92-8.36,35.31,35.31,0,0,1,5.62-7.41,77.18,77.18,0,0,1,6.89-6.06.67.67,0,0,1,1,.1.69.69,0,0,1-.09,1,76.77,76.77,0,0,0-6.57,6.15,33.9,33.9,0,0,0-5.12,7.2,66.78,66.78,0,0,0-3.55,8.22c-1,2.82-2,5.7-2.88,8.57h0a1.24,1.24,0,0,1-2.37-.76Z" transform="translate(-24.52 -56.73)" style="fill: #a7a9ac"/>
  </g>
  <g id="InvBox">
    <rect x="206.62" y="385.47" width="41.64" height="8.43" rx="2.66" style="fill: #2a3b90"/>
    <rect x="350.94" y="393.05" width="27.38" height="8.43" rx="2.66" style="fill: #2a3b90"/>
    <rect x="98.6" y="345.53" width="67.58" height="8.43" rx="2.66" style="fill: #2a3b90"/>
    <rect x="89.33" y="311.54" width="50.37" height="8.43" rx="2.66" style="fill: #2a3b90"/>
    <rect x="94.28" y="295.15" width="54.47" height="8.43" rx="2.66" style="fill: #2a3b90"/>
    <rect x="124.06" y="256.7" width="28.38" height="8.43" rx="2.66" style="fill: #2a3b90"/>
    <rect x="96.62" y="240.78" width="66.07" height="8.43" rx="2.66" style="fill: #2a3b90"/>
    <rect x="83.98" y="223.07" width="28.13" height="8.43" rx="2.66" style="fill: #2a3b90"/>
    <rect x="84.79" y="207.27" width="28.47" height="8.43" rx="2.66" style="fill: #2a3b90"/>
    <rect x="60.71" y="171.61" width="28.13" height="8.43" rx="2.66" style="fill: #2a3b90"/>
    <rect x="59.47" y="155.51" width="28.21" height="8.43" rx="2.66" style="fill: #2a3b90"/>
    <rect x="61.45" y="143.11" width="28.35" height="8.43" rx="2.66" style="fill: #2a3b90"/>
    <rect x="308.94" y="18.24" width="28.52" height="8.43" rx="2.66" style="fill: #2a3b90"/>
    <rect x="362.95" y="11.34" width="44.81" height="8.43" rx="2.66" style="fill: #2a3b90"/>
    <rect x="374.74" y="34.95" width="61.2" height="8.43" rx="2.66" style="fill: #2a3b90"/>
    <rect x="384.73" y="53.48" width="41.22" height="8.43" rx="2.66" style="fill: #2a3b90"/>
    <rect x="406.21" y="67.68" width="53.44" height="8.43" rx="2.66" style="fill: #2a3b90"/>
    <rect x="371.82" y="82.94" width="49.1" height="8.43" rx="2.66" style="fill: #2a3b90"/>
    <rect x="404.6" y="112.94" width="28.13" height="8.43" rx="2.66" style="fill: #2a3b90"/>
    <rect x="413.68" y="129.57" width="28.13" height="8.43" rx="2.66" style="fill: #2a3b90"/>
    <rect x="424.43" y="143.92" width="28.55" height="8.43" rx="2.66" style="fill: #2a3b90"/>
    <rect x="426.25" y="158.09" width="28.55" height="8.43" rx="2.66" style="fill: #2a3b90"/>
    <rect x="405.66" y="190.07" width="28.55" height="8.43" rx="2.66" style="fill: #2a3b90"/>
    <rect x="460.84" y="284.25" width="24.46" height="8.43" rx="2.66" style="fill: #2a3b90"/>
    <rect x="445.98" y="300.5" width="42.89" height="8.43" rx="2.66" style="fill: #2a3b90"/>
    <rect x="358.61" y="311.54" width="28.55" height="8.43" rx="2.66" style="fill: #2a3b90"/>
    <rect x="408.63" y="340.62" width="67.04" height="8.43" rx="2.66" style="fill: #2a3b90"/>
    <rect x="420.68" y="357.18" width="45.06" height="8.43" rx="2.66" style="fill: #2a3b90"/>
    <rect x="441.12" y="377.37" width="41.61" height="8.43" rx="2.66" style="fill: #2a3b90"/>
    <rect x="433.52" y="393.81" width="43.6" height="8.43" rx="2.66" style="fill: #2a3b90"/>
    <rect x="395.13" y="404.79" width="28.51" height="8.43" rx="2.66" style="fill: #2a3b90"/>
  <rect x="260.09" y="434.42" width="28.49" height="8.43" rx="2.66" style="fill: #bd202e"/>
    <rect x="79.25" y="14.31" width="46.8" height="8.43" rx="2.66" style="fill: #bd202e"/>
    <rect x="229.92" y="421.88" width="28.49" height="8.43" rx="2.66" style="fill: #bd202e"/>
    <rect x="210.35" y="406.02" width="28.49" height="8.43" rx="2.66" style="fill: #bd202e"/>
    <rect x="138.64" y="361.72" width="28.49" height="8.43" rx="2.66" style="fill: #bd202e"/>
    <rect x="170.98" y="195.96" width="28.49" height="8.43" rx="2.66" style="fill: #bd202e"/>
    <rect x="243.56" y="80.34" width="24.19" height="8.43" rx="2.66" style="fill: #bd202e"/>
    <rect x="124.83" y="122.86" width="28.49" height="8.43" rx="2.66" style="fill: #bd202e"/>
    <rect x="12.84" y="109.51" width="68.05" height="8.43" rx="2.66" style="fill: #bd202e"/>
    <rect x="37.49" y="92.28" width="40.26" height="8.43" rx="2.66" style="fill: #bd202e"/>
    <rect x="54.48" y="74.15" width="28.49" height="8.43" rx="2.66" style="fill: #bd202e"/>
    <rect x="67.72" y="56.9" width="38.82" height="8.43" rx="2.66" style="fill: #bd202e"/>
    <rect x="66.73" y="34.04" width="42.39" height="8.43" rx="2.66" style="fill: #bd202e"/>
    <rect x="138.6" y="7.53" width="48.11" height="8.43" rx="2.66" style="fill: #bd202e"/>
    <rect x="204.74" y="7.53" width="28.49" height="8.43" rx="2.66" style="fill: #bd202e"/>
    <rect x="218.05" y="25.56" width="51.08" height="8.43" rx="2.66" style="fill: #bd202e"/>
    <rect x="224.09" y="47.17" width="28.49" height="8.43" rx="2.66" style="fill: #bd202e"/>
    <rect x="332.16" y="101.44" width="28.25" height="8.43" rx="2.66" style="fill: #bd202e"/>
    <rect x="422.14" y="205.73" width="28.49" height="8.43" rx="2.66" style="fill: #bd202e"/>
    <rect x="364.28" y="235.77" width="28.49" height="8.43" rx="2.66" style="fill: #bd202e"/>
    <path d="M448,249.46h21.62a2.66,2.66,0,0,1,2.66,2.66v4.67a2.66,2.66,0,0,1-2.66,2.66H446.43a2.66,2.66,0,0,1-2.66-2.66v-3.11a4.22,4.22,0,0,1,4.22-4.22Z" style="fill: #bd202e"/>
    <rect x="467.44" y="266.5" width="28.49" height="8.43" rx="2.66" style="fill: #bd202e"/>
 </g>
  <g id="Fam_Names">
    <text transform="translate(211.26 392.15)" style="font-size: 7.662187576293945px;fill: #fff;font-family: HelveticaLTStd-Bold, Helvetica LT Std;font-weight: 700">GT2-DPs</text>
    <text transform="translate(355.54 399.85)" style="font-size: 7.662187576293945px;fill: #fff;font-family: HelveticaLTStd-Bold, Helvetica LT Std;font-weight: 700">GT21</text>
    <text transform="translate(103.2 352.33)" style="font-size: 7.662187576293945px;fill: #fff;font-family: HelveticaLTStd-Bold, Helvetica LT Std;font-weight: 700">GT2-LpsRelated</text>
    <text transform="translate(93.93 318.34)" style="font-size: 7.662187576293945px;fill: #fff;font-family: HelveticaLTStd-Bold, Helvetica LT Std;font-weight: 700">GT2-Class1</text>
    <text transform="translate(98.88 301.95)" style="font-size: 7.662187576293945px;fill: #fff;font-family: HelveticaLTStd-Bold, Helvetica LT Std;font-weight: 700">GT2-B3GntL</text>
    <text transform="translate(128.66 263.5)" style="font-size: 7.662187576293945px;fill: #fff;font-family: HelveticaLTStd-Bold, Helvetica LT Std;font-weight: 700">GT75</text>
    <text transform="translate(101.22 247.58)" style="font-size: 7.662187576293945px;fill: #fff;font-family: HelveticaLTStd-Bold, Helvetica LT Std;font-weight: 700">GT2-Rham-GlfT</text>
    <text transform="translate(88.58 229.87)" style="font-size: 7.662187576293945px;fill: #fff;font-family: HelveticaLTStd-Bold, Helvetica LT Std;font-weight: 700">GT12</text>
    <text transform="translate(89.39 214.07)" style="font-size: 7.662187576293945px;fill: #fff;font-family: HelveticaLTStd-Bold, Helvetica LT Std;font-weight: 700">GT49</text>
    <text transform="translate(65.31 178.41)" style="font-size: 7.662187576293945px;fill: #fff;font-family: HelveticaLTStd-Bold, Helvetica LT Std;font-weight: 700">GT14</text>
    <text transform="translate(64.08 162.31)" style="font-size: 7.662187576293945px;fill: #fff;font-family: HelveticaLTStd-Bold, Helvetica LT Std;font-weight: 700">GT17</text>
    <text transform="translate(66.05 149.91)" style="font-size: 7.662187576293945px;fill: #fff;font-family: HelveticaLTStd-Bold, Helvetica LT Std;font-weight: 700">GT82</text>
    <text transform="translate(313.54 25.04)" style="font-size: 7.662187576293945px;fill: #fff;font-family: HelveticaLTStd-Bold, Helvetica LT Std;font-weight: 700">GT67</text>
    <text transform="translate(367.55 18.14)" style="font-size: 7.662187576293945px;fill: #fff;font-family: HelveticaLTStd-Bold, Helvetica LT Std;font-weight: 700">GT31-Euk</text>
    <text transform="translate(379.34 41.76)" style="font-size: 7.662187576293945px;fill: #fff;font-family: HelveticaLTStd-Bold, Helvetica LT Std;font-weight: 700">GT31-Galt-Gnt</text>
    <text transform="translate(389.33 60.29)" style="font-size: 7.662187576293945px;fill: #fff;font-family: HelveticaLTStd-Bold, Helvetica LT Std;font-weight: 700">GT31-Glt</text>
    <text transform="translate(410.81 74.48)" style="font-size: 7.662187576293945px;fill: #fff;font-family: HelveticaLTStd-Bold, Helvetica LT Std;font-weight: 700">GT31-Fringe</text>
    <text transform="translate(376.42 89.74)" style="font-size: 7.662187576293945px;fill: #fff;font-family: HelveticaLTStd-Bold, Helvetica LT Std;font-weight: 700">GT31-Chsy</text>
    <text transform="translate(409.2 119.74)" style="font-size: 7.662187576293945px;fill: #fff;font-family: HelveticaLTStd-Bold, Helvetica LT Std;font-weight: 700">GT16</text>
    <text transform="translate(418.28 136.37)" style="font-size: 7.662187576293945px;fill: #fff;font-family: HelveticaLTStd-Bold, Helvetica LT Std;font-weight: 700">GT13</text>
    <text transform="translate(429.03 150.72)" style="font-size: 7.662187576293945px;fill: #fff;font-family: HelveticaLTStd-Bold, Helvetica LT Std;font-weight: 700">GT25</text>
    <text transform="translate(430.85 164.89)" style="font-size: 7.662187576293945px;fill: #fff;font-family: HelveticaLTStd-Bold, Helvetica LT Std;font-weight: 700">GT54</text>
    <text transform="translate(410.26 196.87)" style="font-size: 7.662187576293945px;fill: #fff;font-family: HelveticaLTStd-Bold, Helvetica LT Std;font-weight: 700">GT43</text>
    <text transform="translate(465.44 291.05)" style="font-size: 7.662187576293945px;fill: #fff;font-family: HelveticaLTStd-Bold, Helvetica LT Std;font-weight: 700">GT7</text>
    <text transform="translate(450.58 307.3)" style="font-size: 7.662187576293945px;fill: #fff;font-family: HelveticaLTStd-Bold, Helvetica LT Std;font-weight: 700">GT2-CHS</text>
    <text transform="translate(363.22 318.34)" style="font-size: 7.662187576293945px;fill: #fff;font-family: HelveticaLTStd-Bold, Helvetica LT Std;font-weight: 700">GT40</text>
    <text transform="translate(413.23 347.42)" style="font-size: 7.662187576293945px;fill: #fff;font-family: HelveticaLTStd-Bold, Helvetica LT Std;font-weight: 700">GT2-Chitin-HAS</text>
    <text transform="translate(425.28 363.98)" style="font-size: 7.662187576293945px;fill: #fff;font-family: HelveticaLTStd-Bold, Helvetica LT Std;font-weight: 700">GT2-CWR</text>
    <text transform="translate(445.72 384.17)" style="font-size: 7.662187576293945px;fill: #fff;font-family: HelveticaLTStd-Bold, Helvetica LT Std;font-weight: 700">GT2-CeS</text>
    <text transform="translate(438.13 400.61)" style="font-size: 7.662187576293945px;fill: #fff;font-family: HelveticaLTStd-Bold, Helvetica LT Std;font-weight: 700">GT2-Bre3</text>
    <text transform="translate(399.74 411.59)" style="font-size: 7.662187576293945px;fill: #fff;font-family: HelveticaLTStd-Bold, Helvetica LT Std;font-weight: 700">GT84</text>
  <text transform="translate(264.69 441.24)" style="font-size: 7.662187576293945px;fill: #fff;font-family: HelveticaLTStd-Bold, Helvetica LT Std;font-weight: 700">GT81</text>
    <text transform="translate(83.86 21.12)" style="font-size: 7.662187576293945px;fill: #fff;font-family: HelveticaLTStd-Bold, Helvetica LT Std;font-weight: 700">GT8-GATL</text>
    <text transform="translate(234.52 428.7)" style="font-size: 7.662187576293945px;fill: #fff;font-family: HelveticaLTStd-Bold, Helvetica LT Std;font-weight: 700">GT55</text>
    <text transform="translate(214.96 412.84)" style="font-size: 7.662187576293945px;fill: #fff;font-family: HelveticaLTStd-Bold, Helvetica LT Std;font-weight: 700">GT78</text>
    <text transform="translate(143.25 368.54)" style="font-size: 7.662187576293945px;fill: #fff;font-family: HelveticaLTStd-Bold, Helvetica LT Std;font-weight: 700">GT62</text>
    <text transform="translate(175.59 202.78)" style="font-size: 7.662187576293945px;fill: #fff;font-family: HelveticaLTStd-Bold, Helvetica LT Std;font-weight: 700">GT32</text>
    <text transform="translate(248.16 87.15)" style="font-size: 7.662187576293945px;fill: #fff;font-family: HelveticaLTStd-Bold, Helvetica LT Std;font-weight: 700">GT6</text>
    <text transform="translate(129.44 129.68)" style="font-size: 7.662187576293945px;fill: #fff;font-family: HelveticaLTStd-Bold, Helvetica LT Std;font-weight: 700">GT34</text>
    <text transform="translate(17.45 116.33)" style="font-size: 7.662187576293945px;fill: #fff;font-family: HelveticaLTStd-Bold, Helvetica LT Std;font-weight: 700">GT8-Glycogenin</text>
    <text transform="translate(42.1 99.1)" style="font-size: 7.662187576293945px;fill: #fff;font-family: HelveticaLTStd-Bold, Helvetica LT Std;font-weight: 700">GT8-Fun</text>
    <text transform="translate(59.09 80.97)" style="font-size: 7.662187576293945px;fill: #fff;font-family: HelveticaLTStd-Bold, Helvetica LT Std;font-weight: 700">GT77</text>
    <text transform="translate(72.33 63.72)" style="font-size: 7.662187576293945px;fill: #fff;font-family: HelveticaLTStd-Bold, Helvetica LT Std;font-weight: 700">GT8-Lrg</text>
    <text transform="translate(71.34 40.86)" style="font-size: 7.662187576293945px;fill: #fff;font-family: HelveticaLTStd-Bold, Helvetica LT Std;font-weight: 700">GT8-XylT</text>
    <text transform="translate(143.21 14.35)" style="font-size: 7.662187576293945px;fill: #fff;font-family: HelveticaLTStd-Bold, Helvetica LT Std;font-weight: 700">GT8-GAUT</text>
    <text transform="translate(209.34 14.35)" style="font-size: 7.662187576293945px;fill: #fff;font-family: HelveticaLTStd-Bold, Helvetica LT Std;font-weight: 700">GT88</text>
    <text transform="translate(222.66 32.37)" style="font-size: 7.662187576293945px;fill: #fff;font-family: HelveticaLTStd-Bold, Helvetica LT Std;font-weight: 700">GT8-LpsGlt</text>
    <text transform="translate(228.69 53.99)" style="font-size: 7.662187576293945px;fill: #fff;font-family: HelveticaLTStd-Bold, Helvetica LT Std;font-weight: 700">GT24</text>
    <text transform="translate(336.77 108.26)" style="font-size: 7.662187576293945px;fill: #fff;font-family: HelveticaLTStd-Bold, Helvetica LT Std;font-weight: 700">GT15</text>
    <text transform="translate(426.75 212.55)" style="font-size: 7.662187576293945px;fill: #fff;font-family: HelveticaLTStd-Bold, Helvetica LT Std;font-weight: 700">GT64</text>
    <text transform="translate(368.89 242.59)" style="font-size: 7.662187576293945px;fill: #fff;font-family: HelveticaLTStd-Bold, Helvetica LT Std;font-weight: 700">GT45</text>
    <text transform="translate(448.38 257.84)" style="font-size: 7.662187576293945px;fill: #fff;font-family: HelveticaLTStd-Bold, Helvetica LT Std;font-weight: 700">GT27</text>
    <text transform="translate(472.05 273.31)" style="font-size: 7.662187576293945px;fill: #fff;font-family: HelveticaLTStd-Bold, Helvetica LT Std;font-weight: 700">GT60</text>
  
 </g>
  <g id="flowmask">
    <text transform="translate(177.99 442.85)" style="font-size: 13.660050392150879px;fill: #414042;font-family: HelveticaLTStd-Light, Helvetica LT Std;font-weight: 300">Clade 2</text>
    <text transform="translate(49.86 368.54)" style="font-size: 13.660050392150879px;fill: #414042;font-family: HelveticaLTStd-Light, Helvetica LT Std;font-weight: 300">Clade 3</text>
    <text transform="translate(29.78 308.95)" style="font-size: 13.660050392150879px;fill: #414042;font-family: HelveticaLTStd-Light, Helvetica LT Std;font-weight: 300">Clade 4</text>
    <text transform="translate(0 160.19)" style="font-size: 13.660050392150879px;fill: #414042;font-family: HelveticaLTStd-Light, Helvetica LT Std;font-weight: 300">Clade 7</text>
    <text transform="translate(13.58 29.77)" style="font-size: 13.660050392150879px;fill: #414042;font-family: HelveticaLTStd-Light, Helvetica LT Std;font-weight: 300">Clade 9</text>
    <text transform="translate(431.03 11.34)" style="font-size: 13.660050392150879px;fill: #414042;font-family: HelveticaLTStd-Light, Helvetica LT Std;font-weight: 300">Clade 8</text>
    <text transform="translate(461.39 133.9)" style="font-size: 13.660050392150879px;fill: #414042;font-family: HelveticaLTStd-Light, Helvetica LT Std;font-weight: 300">Clade 6</text>
    <text transform="translate(510.47 280.04)" style="font-size: 13.660050392150879px;fill: #414042;font-family: HelveticaLTStd-Light, Helvetica LT Std;font-weight: 300">Clade 5</text>
    <text transform="translate(492.79 399.94)" style="font-size: 13.660050392150879px;fill: #414042;font-family: HelveticaLTStd-Light, Helvetica LT Std;font-weight: 300">Clade 1</text>
  </g>
</svg>
